HIERARCHY
ROOT Hips
{
	OFFSET 0.00000 0.00000 0.00000
	CHANNELS 6 Xposition Yposition Zposition Yrotation Zrotation Xrotation 
	JOINT Lumbar
	{
		OFFSET 0 0 0
		CHANNELS 3 Zrotation Xrotation Yrotation
		JOINT Neck
		{
			OFFSET 0.00 0.2701 0.00
			CHANNELS 3 Zrotation Xrotation Yrotation
			End Site
			{
				OFFSET 0.00 0.1379 0.00
			}
		}
		JOINT RightShoulder
		{
			OFFSET 0.0119 0.2289 0.1181
			CHANNELS 3 Zrotation Xrotation Yrotation
			JOINT RightElbow
			{
				OFFSET 0.00 -0.1475 0.00
				CHANNELS 2 Zrotation Yrotation
				JOINT RightWrist
				{
					OFFSET 0.00 -0.1605 0.00
					CHANNELS 2 Zrotation Xrotation
					End Site
					{
						OFFSET 0.0040 -0.1068 0.0006
					}
				}
			}
		}
		JOINT LeftShoulder
		{
			OFFSET 0.0119 0.2289 -0.1181
			CHANNELS 3 Zrotation Xrotation Yrotation
			JOINT LeftElbow
			{
				OFFSET 0.00 -0.1475 0.00
				CHANNELS 2 Zrotation Yrotation
				JOINT LeftWrist
				{
					OFFSET 0.00 -0.1605 0.00
					CHANNELS 2 Zrotation Xrotation
					End Site
					{
						OFFSET 0.0040 -0.1068 -0.0006
					}
				}
			}
		}
	}
	JOINT RightHip
	{
		OFFSET 0.0316 -0.0424 0.0458
		CHANNELS 3 Zrotation Xrotation Yrotation
		JOINT RightKnee
		{
			OFFSET 0.00 -0.2438 0.00
			CHANNELS 1 Zrotation
			JOINT RightAnkle
			{
				OFFSET 0.00 -0.2449 0.00
				CHANNELS 3 Zrotation Xrotation Yrotation
				End Site
				{
					OFFSET 0.1237 -0.0542 0.0051
				}
			}
		}
	}
	JOINT LeftHip
	{
		OFFSET 0.0316 -0.0424 -0.0458
		CHANNELS 3 Zrotation Xrotation Yrotation
		JOINT LeftKnee
		{
			OFFSET 0.00 -0.2438 0.00
			CHANNELS 1 Zrotation
			JOINT LeftAnkle
			{
				OFFSET 0.00 -0.2449 0.00
				CHANNELS 3 Zrotation Xrotation Yrotation
				End Site
				{
					OFFSET 0.1237 -0.0542 -0.0051
				}
			}
		}
	}
}
MOTION
Frames: 25
Frame Time: 0.02
-0.42783 0.57172 -0.35075 209.43082 0 -4.96318 10.45002 2.77499 -6.01278 -41.24026 7.92845 11.46169 43.03808 -25.97993 48.7329 64.02555 102.65359 -41.33182 -5.27118 35.68828 5.05445 -11.06956 15.7171 -80.98779 -3.75958 6.61137 -2.14802 10.49531 14.66407 -8.60296 -10.41377 0.22451 -19.20295 -1.55018 14.3949 -7.20315 -14.29277 -2.18245 1.5513 0.1694
-0.42871 0.57178 -0.35247 209.52206 0 -4.85409 10.42928 2.74093 -5.98356 -41.28416 7.85854 11.42016 43.13658 -25.91468 48.63275 63.98417 102.59892 -41.47609 -5.25687 35.75623 5.11963 -11.1009 15.7664 -81.09645 -3.77751 6.66503 -2.16797 10.57968 14.93164 -8.56092 -10.44677 0.30156 -19.57473 -1.36751 14.45648 -7.28887 -14.51589 -2.35516 1.52191 0.01601
-0.42949 0.57187 -0.35406 209.58398 0 -4.7449 10.40846 2.71109 -5.94979 -41.34883 7.80425 11.39617 43.2583 -25.87142 48.50076 63.91916 102.46086 -41.54883 -5.23454 35.74886 5.15837 -10.94597 15.69231 -81.22663 -3.7664 6.61447 -2.1853 10.60187 14.61469 -8.49576 -10.48203 0.27247 -19.35491 -1.20577 14.50294 -7.34154 -14.70635 -2.54349 1.49769 -0.13098
-0.4303 0.57194 -0.3557 209.65812 0 -4.63622 10.38467 2.68006 -5.91439 -41.39796 7.74399 11.36667 43.36899 -25.83283 48.36162 63.86717 102.33024 -41.64827 -5.21302 35.76721 5.20801 -10.87105 15.66557 -81.34332 -3.76475 6.60356 -2.20291 10.65132 14.55653 -8.44011 -10.51846 0.28381 -19.39755 -1.03284 14.55514 -7.41225 -14.91337 -2.72354 1.47137 -0.27777
-0.43119 0.57202 -0.35735 209.73322 0 -4.52577 10.3741 2.64721 -5.88998 -41.47496 7.67678 11.32459 43.47725 -25.72245 48.31293 63.80849 102.34028 -41.7798 -5.20507 35.82229 5.26512 -10.81488 15.67406 -81.47542 -3.77802 6.62397 -2.22339 10.70608 14.54493 -8.39032 -10.54636 0.32978 -19.48164 -0.86873 14.61212 -7.47001 -15.11207 -2.90829 1.44434 -0.43615
-0.43189 0.57209 -0.35895 209.80204 0 -4.41898 10.33508 2.61836 -5.84593 -41.49645 7.63093 11.31659 43.60212 -25.78039 48.06926 63.75465 102.02569 -41.81993 -5.1653 35.78034 5.29611 -10.67439 15.58015 -81.58068 -3.75372 6.55508 -2.23749 10.7348 14.29487 -8.32212 -10.59235 0.27968 -19.33833 -0.68922 14.65509 -7.54865 -15.32195 -3.08703 1.42004 -0.56895
-0.43215 0.57215 -0.36043 209.8454 0 -4.32144 10.22587 2.60382 -5.71654 -41.37935 7.61136 11.36223 43.72003 -26.17612 47.29003 63.74626 100.92011 -41.68022 -5.05064 35.51792 5.30191 -10.36428 15.23776 -81.60559 -3.63195 6.26254 -2.23645 10.70378 13.47313 -8.20967 -10.68677 -0.03413 -18.64517 -0.47838 14.66866 -7.67196 -15.55584 -3.24583 1.40001 -0.63898
-0.43221 0.57221 -0.36186 209.88668 0 -4.22774 10.08636 2.59245 -5.57326 -41.20207 7.61794 11.44751 43.86678 -26.76204 46.319 63.73673 99.47188 -41.43887 -4.90103 35.15562 5.27541 -9.97344 14.79625 -81.6028 -3.47372 5.88452 -2.22882 10.64884 12.43547 -8.0791 -10.7992 -0.43743 -17.74978 -0.24821 14.66764 -7.82086 -15.80476 -3.398 1.38279 -0.68277
-0.43233 0.57227 -0.36331 209.93926 0 -4.13279 9.95545 2.57642 -5.45841 -41.03918 7.63157 11.53903 44.0258 -27.3417 45.43601 63.71283 98.12725 -41.20953 -4.76151 34.81985 5.23668 -9.60752 14.39751 -81.61351 -3.33273 5.54722 -2.22329 10.607 11.5347 -7.95597 -10.90413 -0.78375 -16.99211 -0.01618 14.66974 -7.97195 -16.05661 -3.55293 1.36558 -0.73449
-0.43258 0.57232 -0.36477 209.94699 0 -4.03565 9.84694 2.57325 -5.25222 -40.93122 7.56636 11.53145 44.06126 -27.58765 44.53838 63.75868 97.00964 -41.12822 -4.65061 34.55968 5.30861 -9.28209 14.00335 -81.62167 -3.18752 5.19763 -2.22179 10.55464 10.46436 -7.83538 -11.00701 -1.20065 -16.03462 0.17009 14.68627 -8.06465 -16.26646 -3.70948 1.34335 -0.8021
-0.43252 0.57239 -0.36619 210.04811 0 -3.94413 9.68388 2.5451 -5.23028 -40.69495 7.6707 11.73612 44.38227 -28.56855 43.63843 63.64963 95.32659 -40.70762 -4.46636 34.12104 5.14526 -8.85891 13.57861 -81.6276 -3.04327 4.8556 -2.20994 10.51801 9.68581 -7.70555 -11.11747 -1.49282 -15.43553 0.45665 14.66927 -8.28411 -16.56733 -3.86088 1.33192 -0.83138
-0.43167 0.5725 -0.36752 210.40679 0 -3.86565 9.38341 2.43771 -5.74377 -40.1136 8.24145 12.54453 45.29869 -31.57115 42.67109 63.19829 92.28034 -39.44332 -4.13692 33.20018 4.31989 -8.15762 13.08721 -81.64008 -2.90706 4.54822 -2.17486 10.54192 9.92382 -7.55425 -11.25284 -1.39727 -16.03105 1.01433 14.56492 -8.85791 -17.11939 -4.00009 1.3518 -0.75395
-0.43051 0.57262 -0.36882 210.85951 0 -3.79281 9.02798 2.30677 -6.43842 -39.40647 8.98007 13.55907 46.53536 -35.29608 41.72649 62.57721 88.66265 -37.83016 -3.72675 32.10666 3.26377 -7.36657 12.57064 -81.65021 -2.77393 4.25329 -2.12887 10.58061 10.43963 -7.39452 -11.39387 -1.17629 -16.97109 1.67231 14.42694 -9.55576 -17.76165 -4.13451 1.38204 -0.64046
-0.42946 0.57273 -0.37013 211.27033 0 -3.71865 8.69394 2.19293 -7.03544 -38.75994 9.63992 14.46235 47.74826 -38.66907 40.84479 61.97568 85.22352 -36.33033 -3.32037 31.10093 2.32541 -6.63633 12.07002 -81.65724 -2.64176 3.95786 -2.08551 10.60553 10.72331 -7.23893 -11.52649 -1.0266 -17.65059 2.28549 14.30351 -10.19107 -18.36094 -4.27043 1.40609 -0.54804
-0.42853 0.57285 -0.37145 211.6789 0 -3.64017 8.37411 2.0525 -7.69829 -38.09531 10.31501 15.44499 48.45118 -42.16259 39.65483 61.60944 82.08739 -35.01159 -3.04778 30.05005 1.32735 -5.82002 11.54539 -81.68032 -2.49808 3.6375 -2.05196 10.65966 11.43248 -7.08111 -11.6834 -0.82092 -18.74941 2.89709 14.18323 -10.85663 -18.97062 -4.40777 1.43648 -0.43411
-0.42729 0.57295 -0.37273 212.11281 0 -3.57098 8.01191 1.9614 -8.26509 -37.44119 10.99308 16.30607 50.2881 -45.55664 39.10526 60.7226 78.22344 -33.24193 -2.48269 29.05636 0.40441 -5.16101 11.06788 -81.67053 -2.37992 3.37329 -1.99519 10.65641 11.34136 -6.92656 -11.79206 -0.69944 -19.07465 3.53426 14.04786 -11.48413 -19.57797 -4.54264 1.45608 -0.35778
-0.42535 0.57299 -0.37389 212.60848 0 -3.53459 7.54737 2.01581 -8.54198 -36.83266 11.67951 16.8217 55.20973 -48.64851 40.40296 58.36283 72.21137 -30.24102 -1.09004 28.24031 -0.29942 -4.97326 10.71223 -81.56406 -2.32899 3.26049 -1.87965 10.49443 8.82635 -6.77987 -11.75548 -0.85314 -17.04886 4.22825 13.88582 -12.01087 -20.17295 -4.65792 1.44331 -0.38618
-0.42311 0.573 -0.375 213.12375 0 -3.50581 7.04215 2.11999 -8.71325 -36.24339 12.35545 17.20068 61.25347 -51.58679 42.33023 55.50433 65.55154 -26.80888 0.58504 27.49338 -0.91179 -4.944 10.40815 -81.42592 -2.30431 3.20438 -1.74074 10.27375 5.52409 -6.6374 -11.67202 -1.09317 -14.25749 4.94223 13.70882 -12.4878 -20.75912 -4.77308 1.41927 -0.45575
-0.42099 0.57304 -0.37612 213.62024 0 -3.46783 6.55476 2.19904 -8.91894 -35.65316 13.00885 17.61459 66.7651 -54.4962 43.91395 52.9183 59.35806 -23.62575 2.10664 26.72895 -1.53572 -4.83356 10.09033 -81.30673 -2.26938 3.12302 -1.6107 10.07786 2.68008 -6.4953 -11.61693 -1.28536 -11.90416 5.64016 13.53394 -12.96541 -21.33903 -4.89798 1.40047 -0.51115
-0.41892 0.57302 -0.37728 214.16129 0 -3.45398 6.06769 2.28789 -9.18463 -35.0199 13.78283 18.14793 72.38979 -57.84637 45.73797 50.11252 52.37193 -20.22013 3.7436 25.89599 -2.29186 -4.76091 9.73032 -81.16833 -2.22731 3.03955 -1.4873 9.89031 -0.57572 -6.3435 -11.53234 -1.50966 -9.18486 6.37176 13.3765 -13.54259 -21.96658 -4.98355 1.38174 -0.5441
-0.41668 0.57311 -0.37834 214.61346 0 -3.39201 5.57168 2.36841 -9.30245 -34.48961 14.30171 18.40052 78.03088 -60.23403 47.21428 47.67379 46.9487 -17.16295 5.19821 25.22907 -2.75112 -4.64543 9.47116 -81.06229 -2.20651 2.97419 -1.34513 9.67143 -3.16795 -6.2127 -11.49785 -1.68907 -7.03828 7.03572 13.18103 -13.89577 -22.49018 -5.14888 1.35978 -0.63657
-0.414 0.57351 -0.37912 214.8105 0 -3.19212 5.05593 2.41434 -8.99751 -34.17704 14.11192 17.88335 83.52529 -59.9857 47.5456 46.15384 45.48311 -15.32706 6.14954 24.96408 -2.38389 -4.39993 9.47485 -81.05473 -2.23626 2.94159 -1.1531 9.37912 -3.70477 -6.14185 -11.61422 -1.72511 -6.68785 7.51497 12.87264 -13.66996 -22.74113 -5.55268 1.33433 -0.85947
-0.41117 0.57403 -0.37978 214.91771 0 -2.94429 4.53408 2.45021 -8.55371 -33.97838 13.66659 17.0927 88.97681 -58.77427 47.51065 45.06239 45.69623 -13.83339 6.89471 24.8711 -1.72544 -4.10234 9.57889 -81.08055 -2.28671 2.9258 -0.94383 9.05765 -3.55337 -6.09151 -11.78235 -1.7134 -6.93359 7.92321 12.52892 -13.21567 -22.88533 -6.03279 1.30566 -1.14351
-0.40842 0.57449 -0.38049 215.06899 0 -2.72026 4.01825 2.49039 -8.19938 -33.77038 13.34139 16.44437 94.39683 -58.00918 47.66379 43.91711 45.50262 -12.07953 7.68777 24.72747 -1.21806 -3.80997 9.6392 -81.09027 -2.32898 2.90452 -0.74487 8.75009 -3.73883 -6.02985 -11.92614 -1.72294 -6.88648 8.35949 12.20899 -12.84616 -23.06957 -6.46684 1.27641 -1.41789
-0.40559 0.57496 -0.38124 215.20795 0 -2.48733 3.48613 2.53327 -7.73145 -33.38899 12.99743 15.71466 100.08642 -57.19869 47.7486 42.1572 43.84759 -10.73754 8.68218 24.47395 -0.62807 -3.59657 9.69369 -81.10296 -2.36748 2.87628 -0.53429 8.43703 -3.85116 -5.97669 -12.07195 -1.73691 -6.90458 8.81627 11.85545 -12.55143 -23.28813 -6.95141 1.25464 -1.62527
